<svg xmlns="http://www.w3.org/2000/svg" xmlns:v="https://svgstorm.com"
viewBox = "0 0 48 63"
width="48"
height="63">
<g fill="None" fill-opacity="0.0" stroke="#000000" stroke-opacity="1.00" stroke-width="0.3"><path d="
M 0.00 63.00 
L 48.00 63.00
L 48.00 0.00
L 0.00 0.00
L 0.00 63.00
M 45.00 2.00 
C 49.64 15.64 39.78 30.61 25.00 31.00 C 10.22 31.39 -1.16 15.89 4.00 2.00
C 4.47 14.13 9.10 28.62 24.00 29.00 C 38.90 29.37 45.20 14.45 45.00 2.00
M 45.00 61.00 
C 44.60 48.94 39.77 34.39 24.99 34.01 C 10.21 33.63 3.88 48.67 4.00 61.00
C -0.60 47.47 9.37 32.39 24.00 32.00 C 38.63 31.61 50.11 47.23 45.00 61.00 Z"/>
</g>
<g fill="None" fill-opacity="0.0" stroke="#892D2E" stroke-opacity="1.00" stroke-width="0.3"><path d="
M 45.00 2.00 
C 45.20 14.45 38.90 29.37 24.00 29.00 C 9.10 28.62 4.47 14.13 4.00 2.00
C -1.16 15.89 10.22 31.39 25.00 31.00 C 39.78 30.61 49.64 15.64 45.00 2.00 Z"/>
</g>
<g fill="None" fill-opacity="0.0" stroke="#882D2E" stroke-opacity="1.00" stroke-width="0.3"><path d="
M 45.00 61.00 
C 50.11 47.23 38.63 31.61 24.00 32.00 C 9.37 32.39 -0.60 47.47 4.00 61.00
C 3.88 48.67 10.21 33.63 24.99 34.01 C 39.77 34.39 44.60 48.94 45.00 61.00 Z"/>
</g>
<g fill="#000000" fill-opacity="1.00" stroke="None">
<path d="
M 0.00 63.00 
L 48.00 63.00
L 48.00 0.00
L 0.00 0.00
L 0.00 63.00
M 45.00 2.00 
C 49.64 15.64 39.78 30.61 25.00 31.00 C 10.22 31.39 -1.16 15.89 4.00 2.00
C 4.47 14.13 9.10 28.62 24.00 29.00 C 38.90 29.37 45.20 14.45 45.00 2.00
M 45.00 61.00 
C 44.60 48.94 39.77 34.39 24.99 34.01 C 10.21 33.63 3.88 48.67 4.00 61.00
C -0.60 47.47 9.37 32.39 24.00 32.00 C 38.63 31.61 50.11 47.23 45.00 61.00 Z"/>
</g>
<g fill="#892D2E" fill-opacity="1.00" stroke="None">
<path d="
M 45.00 2.00 
C 45.20 14.45 38.90 29.37 24.00 29.00 C 9.10 28.62 4.47 14.13 4.00 2.00
C -1.16 15.89 10.22 31.39 25.00 31.00 C 39.78 30.61 49.64 15.64 45.00 2.00 Z"/>
</g>
<g fill="#882D2E" fill-opacity="1.00" stroke="None">
<path d="
M 45.00 61.00 
C 50.11 47.23 38.63 31.61 24.00 32.00 C 9.37 32.39 -0.60 47.47 4.00 61.00
C 3.88 48.67 10.21 33.63 24.99 34.01 C 39.77 34.39 44.60 48.94 45.00 61.00 Z"/>
</g>
</svg>